<?xml version="1.0" encoding="utf-8"?>
<!-- Generator: Adobe Illustrator 14.0.0, SVG Export Plug-In . SVG Version: 6.00 Build 43363)  -->
<!DOCTYPE svg PUBLIC "-//W3C//DTD SVG 1.1//EN" "http://www.w3.org/Graphics/SVG/1.1/DTD/svg11.dtd">
<svg version="1.1" id="Layer_1" xmlns="http://www.w3.org/2000/svg" xmlns:xlink="http://www.w3.org/1999/xlink" x="0px" y="0px"
	 width="252px" height="36px" viewBox="0 50 252 36" enable-background="new 0 0 252 144" xml:space="preserve">
<g>
	<path fill="#00AEEF" d="M34.661,61.472c0.131-0.188-0.479,1.562-1.834,5.25h-11.32L18.29,75.84h-6.153l7.96-22.554h17.444
		l-1.835,5.307H24.358l-1.016,2.879H34.661z"/>
	<path fill="#00AEEF" d="M55.888,70.533l-1.863,5.307H32.883l7.678-22.497h6.097l-5.899,17.19H55.888z"/>
	<path fill="#00AEEF" d="M84.284,59.005l-2.936,8.282H63.566l-0.48,1.453c-0.132,0.361-0.198,0.664-0.198,0.911
		c0,0.588,0.376,0.883,1.129,0.883H80.22l-1.863,5.307H60.884c-3.313,0-4.968-1.034-4.968-3.104c0-0.583,0.208-1.478,0.621-2.682
		l5.166-14.96c0.414-1.167,1.421-1.75,3.021-1.75h16.569c2.371,0,3.557,0.977,3.557,2.93C84.849,57.005,84.661,57.916,84.284,59.005
		z M77.708,60.105c0.038-0.112,0.057-0.233,0.057-0.364c0-0.728-0.461-1.092-1.383-1.092h-7.904c-0.677,0-1.157,0.047-1.439,0.14
		c-0.395,0.149-0.659,0.43-0.791,0.84l-0.762,2.351h11.601L77.708,60.105z"/>
	<path fill="#00AEEF" d="M109.999,59.005l-2.936,8.282H89.281l-0.48,1.453c-0.132,0.361-0.198,0.664-0.198,0.911
		c0,0.588,0.376,0.883,1.129,0.883h16.202l-1.863,5.307H86.599c-3.313,0-4.968-1.034-4.968-3.104c0-0.583,0.208-1.478,0.621-2.682
		l5.166-14.96c0.414-1.167,1.421-1.75,3.021-1.75h16.569c2.371,0,3.557,0.977,3.557,2.93
		C110.564,57.005,110.375,57.916,109.999,59.005z M103.422,60.105c0.038-0.112,0.057-0.233,0.057-0.364
		c0-0.728-0.461-1.092-1.383-1.092h-7.904c-0.677,0-1.157,0.047-1.439,0.14c-0.395,0.149-0.659,0.43-0.791,0.84L91.2,61.98h11.601
		L103.422,60.105z"/>
	<path fill="#00AEEF" d="M120.64,75.813l-6.154,0.027l6.069-17.19h-9.258l1.919-5.363h24.36l-1.891,5.363h-8.978l-6.069,17.19
		L120.64,75.813L120.64,75.813z"/>
</g>
<line fill="none" x1="133.784" y1="55.868" x2="241.751" y2="55.868"/>
<g>
	<path fill="#FFFFFF" d="M160.348,61.849l-1.863,5.307h-13.322c-0.696,0-1.232,0.14-1.609,0.42
		c-0.207,0.149-0.433,0.429-0.677,0.839c-0.038,0.056-0.058,0.196-0.058,0.419c0,0.224-0.01,0.335-0.027,0.335
		c-0.038,0.094-0.057,0.196-0.057,0.308c0,0.56,0.424,0.839,1.271,0.839h10.246c1.147,0,2.084,0.269,2.81,0.806
		c0.725,0.537,1.086,1.305,1.086,2.305c0,0.528-0.112,1.104-0.338,1.726c-0.564,1.529-1.394,3.754-2.483,6.676
		c-0.302,0.85-0.659,1.451-1.073,1.811c-0.508,0.471-1.225,0.707-2.145,0.707H133.08l1.891-5.307h13.295
		c1.205,0,1.978-0.421,2.315-1.264c0.282-0.728,0.461-1.07,0.536-1.033c0.02-0.076,0.027-0.152,0.027-0.229
		c0-0.595-0.479-0.892-1.438-0.892h-10.247c-1.129,0-2.042-0.263-2.736-0.787c-0.754-0.562-1.131-1.351-1.131-2.361
		c0-0.524,0.104-1.086,0.311-1.687c1.432-4.142,2.164-6.288,2.203-6.438c0.414-1.668,1.485-2.502,3.218-2.502h19.024V61.849z"/>
	<path fill="#FFFFFF" d="M188.885,61.792l-8.017,22.554h-6.154l3.246-9.117h-11.317l-3.219,9.117h-6.154l7.988-22.554h6.184
		l-2.853,8.214h11.263l2.907-8.214H188.885z"/>
	<path fill="#FFFFFF" d="M212.82,67.805l-5.109,14.452c-0.264,0.733-0.743,1.289-1.439,1.665c-0.545,0.283-1.139,0.424-1.777,0.424
		H188.15c-2.26,0-3.389-0.969-3.389-2.908c0-0.864,0.217-1.871,0.649-3.02l0.479-1.186l4.629-13.268
		c0.244-0.734,0.715-1.289,1.412-1.666c0.563-0.301,1.166-0.452,1.807-0.452h16.343c2.239,0,3.358,0.969,3.358,2.907
		C213.441,65.565,213.234,66.582,212.82,67.805z M206.243,68.905c0.075-0.188,0.112-0.376,0.112-0.564
		c0-0.791-0.338-1.186-1.017-1.186h-8.187c-1.092,0-1.834,0.563-2.229,1.693l-2.936,8.44c-0.076,0.188-0.113,0.386-0.113,0.592
		c0,0.772,0.339,1.158,1.018,1.158h8.186c0.678,0,1.193-0.17,1.553-0.508c0.227-0.228,0.441-0.611,0.648-1.158L206.243,68.905z"/>
	<path fill="#FFFFFF" d="M224.111,84.316l-6.153,0.028l6.067-17.189h-9.258l1.92-5.363h24.359l-1.893,5.363h-8.977l-6.068,17.189
		v-0.028H224.111z"/>
</g>
<rect x="113.256" y="53.307" fill="#00AEEF" width="127.792" height="5.411"/>
<rect x="12.137" y="79.052" fill="#FFFFFF" width="138.755" height="5.244"/>
</svg>
